<?xml version="1.0" encoding="utf-8"?>
<!-- Generator: Adobe Illustrator 21.1.0, SVG Export Plug-In . SVG Version: 6.00 Build 0)  -->
<svg version="1.1" id="Layer_1" xmlns="http://www.w3.org/2000/svg" xmlns:xlink="http://www.w3.org/1999/xlink" x="0px" y="0px"
	 viewBox="0 0 300 300" style="enable-background:new 0 0 300 300;" xml:space="preserve">
<g>
	<path d="M137.9,50.3v138l13.5,0.5l-1.4,52.8h-15.6l-1.4-37.1H35.9l-1.4,37.1H19l-1.4-52.8l11.7-0.5c5.7-10.5,11.4-21.7,15.1-33.9
		c5.3-17.8,7.3-38.4,7.3-65V50.3H137.9z M70.2,95.8c0,24.7-2.3,45.5-7.8,62.9c-3.2,10.8-8,21-12.6,29.3H118V66.8H70.2V95.8z"/>
	<path d="M238.4,204.5l-1.6-14h-0.7c-6.2,8.7-18.1,16.5-33.9,16.5c-22.4,0-33.9-15.8-33.9-31.8c0-26.8,23.8-41.4,66.6-41.2v-2.3
		c0-9.2-2.5-25.6-25.2-25.6c-10.3,0-21,3.2-28.8,8.2l-4.6-13.3c9.2-5.9,22.4-9.8,36.4-9.8c33.9,0,42.1,23.1,42.1,45.3V178
		c0,9.6,0.5,19,1.8,26.5H238.4z M235.4,148c-22-0.5-46.9,3.4-46.9,24.9c0,13,8.7,19.2,19,19.2c14.4,0,23.6-9.2,26.8-18.5
		c0.7-2.1,1.1-4.3,1.1-6.4V148z"/>
</g>
</svg>
